<?xml version="1.0" standalone="no"?>
<!DOCTYPE svg PUBLIC "-//W3C//DTD SVG 20010904//EN"
 "http://www.w3.org/TR/2001/REC-SVG-20010904/DTD/svg10.dtd">
<svg version="1.0" xmlns="http://www.w3.org/2000/svg"
 width="1000.000000pt" height="1000.000000pt" viewBox="0 0 1000.000000 1000.000000"
 preserveAspectRatio="xMidYMid meet">
<metadata>
Created by potrace 1.16, written by Peter Selinger 2001-2019
</metadata>
<g transform="translate(0.000000,1000.000000) scale(0.100000,-0.100000)"
fill="#000000" stroke="none">
<path d="M4840 8843 c-14 -2 -103 -20 -199 -39 -168 -34 -245 -56 -266 -77
-11 -11 -5 -10 135 22 283 65 531 87 657 58 37 -9 88 -19 113 -23 98 -14 283
-75 350 -114 38 -22 73 -40 78 -40 13 0 223 -102 296 -144 133 -77 225 -153
291 -241 106 -140 215 -391 280 -640 13 -49 37 -143 54 -209 17 -65 31 -136
31 -157 0 -44 0 -44 -115 -54 -38 -4 -106 -13 -150 -21 -44 -8 -115 -14 -157
-14 -75 0 -78 1 -78 24 0 20 4 22 26 18 21 -4 25 -1 22 14 -2 13 -12 19 -28
19 -28 0 -49 21 -50 48 0 12 8 17 26 17 19 0 25 4 22 18 -2 11 -13 17 -30 17
-31 0 -43 10 -53 43 -5 17 -3 23 7 21 31 -4 47 2 42 15 -7 18 -42 27 -50 14
-7 -12 -43 29 -44 49 0 6 13 13 30 15 22 2 27 6 21 17 -5 7 -21 14 -35 14 -16
0 -34 9 -46 25 -26 33 -25 42 5 36 20 -3 25 0 25 16 0 19 -10 24 -38 21 -19
-3 -52 29 -52 49 0 13 6 16 25 12 14 -2 25 0 25 4 -1 20 -20 38 -43 39 -28 0
-57 21 -57 41 0 9 11 14 30 14 17 0 30 4 30 8 0 16 -25 32 -51 32 -17 0 -34 8
-43 22 -23 33 -20 40 15 34 29 -4 30 -4 16 17 -9 13 -29 24 -52 28 -35 6 -55
21 -55 45 0 6 12 9 30 6 23 -3 30 0 30 12 0 20 -30 35 -63 32 -20 -2 -33 4
-47 22 -11 13 -20 27 -20 31 0 3 21 4 47 2 l47 -3 -16 23 c-12 19 -22 23 -57
20 -30 -2 -48 3 -62 15 -28 26 -24 44 9 39 41 -5 60 8 42 30 -10 12 -28 15
-72 14 -49 -2 -62 1 -83 21 -14 13 -25 27 -25 32 0 4 29 6 65 5 l66 -4 -21 23
c-19 19 -31 22 -87 20 -58 -1 -71 2 -105 26 -21 16 -38 29 -38 31 0 2 32 2 72
0 60 -1 69 0 57 12 -20 19 -77 32 -134 30 -37 -2 -59 4 -87 21 -54 34 -53 41
6 34 29 -3 63 -3 75 0 23 5 22 6 -11 24 -26 14 -49 17 -98 14 -66 -4 -138 14
-184 49 -20 14 -17 14 34 9 30 -3 71 -2 90 3 l35 8 -38 16 c-30 13 -59 15
-127 12 -49 -3 -109 -1 -134 5 -174 39 -346 47 -595 29 -79 -5 -145 -8 -147
-6 -2 2 16 13 41 24 24 11 42 17 40 13 -3 -4 161 -7 363 -8 232 0 356 4 337 9
-16 5 -38 7 -48 5 -10 -3 -42 2 -70 11 -42 12 -107 16 -325 16 -230 -1 -271 2
-261 13 6 8 9 14 6 14 -10 0 -78 -42 -152 -92 -38 -26 -78 -48 -90 -48 -34 0
-234 -48 -340 -81 -55 -18 -138 -51 -185 -74 -47 -24 -107 -54 -135 -68 -27
-14 -79 -38 -114 -54 -303 -133 -580 -395 -720 -682 -46 -94 -112 -262 -134
-341 -45 -160 -51 -225 -52 -540 0 -168 3 -324 8 -348 7 -39 5 -43 -17 -52
-27 -10 -30 -16 -50 -115 -38 -189 -46 -227 -61 -315 -9 -52 -25 -135 -36
-185 -10 -49 -30 -153 -44 -230 -14 -77 -34 -180 -44 -230 -41 -190 -41 -193
-29 -225 6 -18 21 -35 35 -41 13 -5 125 -9 247 -9 223 0 224 0 230 -22 3 -13
11 -140 16 -283 5 -143 12 -327 15 -410 3 -82 10 -280 15 -440 5 -159 14 -355
20 -435 5 -80 9 -433 9 -784 0 -352 4 -643 8 -647 4 -4 471 -185 1037 -403
748 -288 1040 -396 1070 -396 23 0 650 162 1399 362 l1357 362 -6 45 c-16 126
-30 400 -22 441 13 72 123 461 188 671 22 70 40 142 40 161 0 33 -3 37 -47 53
-25 10 -67 31 -93 47 -26 16 -97 44 -159 62 -61 19 -115 36 -118 40 -12 12
-21 519 -12 736 8 209 27 875 30 1071 2 87 9 114 30 114 6 0 24 25 39 55 93
179 110 238 110 390 0 224 -45 367 -172 550 -41 59 -48 78 -77 210 -18 80 -47
213 -66 295 -18 83 -43 193 -55 245 -32 147 -117 430 -159 529 -42 96 -81 160
-145 232 -23 26 -61 73 -86 105 -58 77 -202 209 -315 289 -50 35 -140 86 -202
114 -61 27 -135 67 -165 88 -66 48 -286 177 -393 231 -136 67 -255 109 -386
136 -70 14 -155 32 -190 41 -60 14 -265 19 -329 8z m-2050 -1368 c10 -29 8
-43 -10 -91 -21 -58 -15 -89 15 -78 23 9 24 -9 13 -132 -11 -116 -12 -119 -42
-139 -42 -28 -102 -138 -119 -220 -3 -17 -6 -16 -17 10 -17 42 -25 295 -11
370 21 112 126 335 151 320 5 -3 14 -21 20 -40z m795 -91 c13 -127 15 -134 45
-149 41 -21 65 -1 62 55 -3 35 0 41 15 38 21 -4 35 -86 31 -183 l-3 -60 -35 3
c-20 2 -49 -4 -65 -12 -17 -9 -39 -16 -51 -16 -26 0 -48 -40 -42 -74 3 -14 -1
-49 -8 -78 -8 -29 -14 -83 -14 -120 0 -78 -13 -96 -28 -35 -33 140 -17 495 28
638 25 77 41 99 51 72 4 -11 10 -46 14 -79z m3399 74 c2 -7 22 -76 45 -153 67
-226 75 -304 35 -319 -11 -4 -26 2 -39 14 -12 11 -24 17 -28 14 -11 -12 -57 6
-57 22 0 8 -15 69 -34 135 -39 133 -39 162 0 247 20 42 29 52 50 52 13 0 26
-6 28 -12z m-2620 -54 c11 -4 16 -19 16 -43 0 -29 4 -37 20 -39 11 -1 27 -2
35 -3 13 -2 15 -26 15 -147 0 -139 -1 -144 -20 -139 -16 4 -20 0 -20 -19 0
-13 -10 -32 -22 -44 -19 -18 -23 -18 -38 -5 -26 23 -40 81 -47 185 -6 100 8
222 28 246 13 16 12 16 33 8z m-482 -106 c24 -20 27 -41 12 -76 -8 -21 -20
-32 -34 -32 -11 0 -20 -4 -20 -9 0 -5 -16 -26 -35 -47 l-35 -39 0 91 0 92 38
15 c46 20 54 20 74 5z m828 -133 c0 -8 9 -15 20 -15 26 0 28 -55 3 -68 -26
-14 -118 -24 -148 -16 -22 5 -25 12 -25 48 0 46 18 164 27 179 7 12 123 -108
123 -128z m-1846 99 c4 -10 13 -13 25 -9 32 10 61 -9 91 -62 l29 -51 -85 -41
c-47 -23 -89 -39 -93 -37 -4 3 -3 40 0 83 4 43 8 90 8 106 1 29 15 36 25 11z
m538 -241 c-8 -254 26 -565 67 -606 19 -19 196 -27 464 -21 l269 7 -7 26 c-12
44 -18 577 -7 597 7 12 12 -28 17 -137 6 -135 48 -470 62 -492 3 -4 60 -7 126
-5 67 2 246 -1 397 -5 166 -5 280 -4 288 1 15 10 41 218 42 325 0 31 4 57 9
57 9 0 16 -58 27 -254 3 -59 10 -121 14 -136 l8 -27 -706 -6 c-981 -10 -1592
-9 -1592 2 0 17 35 22 268 37 196 12 272 23 272 37 0 1 -7 40 -15 87 -28 158
-45 388 -34 475 10 82 28 185 33 185 2 0 1 -66 -2 -147z m3258 128 c5 -11 7
-22 3 -24 -12 -7 -84 -16 -258 -32 -88 -9 -179 -18 -202 -21 -38 -5 -43 -3
-43 15 0 21 9 23 155 36 39 4 111 15 160 25 124 25 171 25 185 1z m-888 -118
c3 -64 -10 -86 -46 -77 -22 5 -23 3 -28 -71 -5 -82 -26 -121 -50 -97 -8 8 -15
8 -24 1 -21 -17 -32 -2 -39 54 -6 47 -17 102 -31 150 -9 31 17 18 31 -15 l14
-33 3 58 c2 31 7 58 12 60 6 1 15 -28 21 -65 12 -72 25 -100 25 -52 0 38 16
54 52 54 22 0 31 6 39 27 6 15 8 35 6 45 -3 10 -1 18 3 18 4 0 10 -26 12 -57z
m939 7 c4 -25 12 -90 19 -145 7 -55 18 -118 25 -140 12 -37 16 -41 66 -52 161
-37 297 -120 454 -276 99 -99 103 -105 148 -212 82 -199 100 -261 101 -355 l1
-85 -30 -3 c-46 -5 -51 -19 -11 -32 23 -7 36 -18 36 -28 -2 -58 -70 -262 -124
-369 -80 -160 -388 -376 -571 -403 -162 -23 -444 2 -549 48 -140 63 -330 222
-441 371 -71 94 -73 103 -51 205 l12 59 60 4 c83 6 94 23 15 23 l-63 0 7 28
c4 15 22 108 42 207 19 99 43 223 53 275 28 143 13 190 -61 190 -19 0 -19 1
-3 31 22 44 165 183 214 208 22 11 71 28 108 36 l68 16 -4 34 c-4 32 -2 35 22
35 20 0 27 -6 32 -27 10 -46 13 -53 25 -53 16 0 1 82 -19 98 -9 6 -25 12 -37
12 -33 0 -58 23 -51 47 5 15 13 19 36 15 23 -3 30 0 30 12 0 21 -26 32 -44 17
-17 -15 -36 22 -35 69 0 19 -2 49 -6 67 -7 32 -7 32 29 29 29 -2 36 1 34 13
-2 8 -14 18 -28 21 -24 6 -23 7 8 11 25 4 32 2 32 -10 0 -9 6 -34 12 -56 l13
-40 5 60 5 60 60 3 c33 1 101 9 150 16 50 8 115 14 145 13 l55 -2 6 -45z
m-1400 -200 c26 -76 29 -98 29 -209 0 -131 -10 -149 -28 -51 -9 49 -10 51 -11
18 -1 -45 -25 -52 -35 -10 -3 15 -8 101 -11 192 -3 91 -7 192 -9 225 l-5 60
21 -70 c11 -38 33 -108 49 -155z m574 -534 c19 -14 19 -17 4 -103 -50 -274
-90 -473 -104 -513 -8 -25 -28 -115 -45 -200 -16 -85 -39 -193 -49 -240 -17
-75 -23 -106 -36 -197 -2 -12 -6 -27 -10 -32 -4 -8 -529 -11 -1730 -11 -1554
0 -1725 2 -1739 16 -9 8 -16 18 -16 22 0 22 23 149 39 217 11 44 24 114 31
155 6 41 22 125 35 185 13 61 36 175 50 255 22 124 63 334 80 406 3 12 13 25
22 30 19 8 1245 18 2644 22 678 2 808 0 824 -12z m-2573 -1332 c3 -3 -5 -35
-18 -72 -13 -37 -24 -78 -24 -92 0 -35 30 -81 81 -122 86 -69 103 -70 32 -2
-39 38 -76 79 -82 91 -13 26 -1 93 29 160 l19 43 939 0 939 0 5 -267 c5 -233
2 -294 -17 -467 l-22 -198 -54 -49 c-30 -27 -83 -64 -119 -82 -36 -19 -84 -46
-108 -60 -23 -15 -44 -27 -46 -27 -3 0 -30 -15 -62 -34 -31 -19 -97 -51 -148
-71 -50 -21 -143 -59 -206 -86 -63 -26 -186 -69 -274 -94 -87 -25 -163 -48
-168 -51 -22 -14 -142 -21 -213 -13 -115 13 -192 53 -259 138 -78 97 -129 179
-192 308 -31 62 -60 111 -64 108 -5 -3 -24 23 -43 57 -94 174 -200 363 -230
410 -53 84 -83 170 -112 310 -16 81 -20 150 -8 161 8 8 417 9 425 1z m2213
-46 c-3 -24 -19 -178 -35 -343 -17 -165 -35 -331 -40 -370 -16 -105 -53 -255
-63 -255 -17 0 8 841 29 978 5 32 6 32 60 32 l55 0 -6 -42z m1210 -131 c0 -50
-4 -98 -8 -104 -5 -8 -24 -11 -50 -9 l-42 4 -5 65 c-3 42 -11 72 -22 84 -10
11 -18 27 -18 36 0 14 11 17 73 17 l72 0 0 -93z m-893 -82 c15 -54 -19 -496
-43 -573 -14 -44 -44 -59 -71 -36 -17 16 -19 26 -13 78 4 33 11 72 15 87 6 20
4 31 -6 40 -10 8 -14 38 -14 118 0 114 11 172 41 210 11 13 19 32 19 42 0 10
5 30 10 44 14 37 51 31 62 -10z m101 -222 c10 -102 8 -127 -16 -155 -12 -14
-33 -29 -46 -33 l-24 -7 7 127 c3 70 9 132 12 136 3 5 18 2 34 -6 23 -12 29
-22 33 -62z m1331 -20 c17 -108 37 -327 34 -369 -3 -42 -6 -49 -25 -52 -31 -5
-38 18 -57 181 -21 177 -20 203 5 243 27 44 36 43 43 -3z m-1090 -163 c-8 -83
-20 -116 -37 -102 -6 5 -24 12 -39 16 -33 8 -43 26 -51 88 -8 62 6 77 68 71
34 -4 45 -2 45 8 0 11 2 11 10 -1 6 -9 8 -42 4 -80z m991 73 c4 -10 13 -69 20
-132 17 -141 10 -166 -31 -120 -12 13 -25 56 -36 122 l-17 101 22 22 c28 27
33 28 42 7z m-219 -148 c25 -60 29 -119 9 -138 -40 -40 -81 -12 -96 66 -15 75
-3 107 41 107 26 0 33 -6 46 -35z m-1782 -341 c3 -9 6 -107 6 -218 l0 -203
-97 -6 c-54 -4 -126 -7 -159 -7 -34 0 -75 -3 -91 -6 -30 -6 -30 -7 -21 -47 19
-80 10 -225 -26 -438 -36 -207 -49 -249 -110 -357 -18 -32 -51 -106 -73 -163
-37 -99 -46 -112 -157 -242 -65 -75 -121 -137 -126 -137 -4 0 -10 10 -13 22
-5 16 14 58 66 148 40 69 86 165 104 213 18 49 38 94 46 100 40 32 73 246 63
407 -8 132 -48 329 -88 440 -18 50 -31 107 -32 138 l-1 52 157 75 c87 41 190
88 230 105 40 17 97 48 128 68 53 36 138 71 171 72 9 0 20 -7 23 -16z m-2338
-18 c3 -8 12 -12 21 -9 12 5 14 -21 12 -193 -3 -225 -15 -321 -42 -338 -14 -8
-20 -8 -27 4 -11 17 -14 533 -3 543 11 12 33 8 39 -7z m271 -348 c5 -7 17 -40
28 -73 10 -33 26 -71 35 -85 10 -16 15 -48 15 -93 0 -56 -3 -71 -19 -83 -23
-16 -41 -5 -50 30 -3 14 -16 26 -31 30 -33 8 -39 38 -31 147 9 122 26 163 53
127z"/>
<path d="M6685 6589 c-120 -8 -168 -20 -259 -65 -82 -42 -141 -81 -180 -123
-17 -17 -35 -31 -42 -31 -29 0 -120 -166 -151 -275 -9 -31 -17 -120 -20 -237
l-6 -187 -29 -6 c-16 -4 -32 -4 -36 0 -4 4 -7 82 -6 173 0 126 4 183 18 232
28 106 28 107 17 90 -15 -25 -49 -163 -61 -250 -8 -57 -8 -101 0 -153 5 -39
11 -81 13 -92 2 -17 11 -21 62 -25 50 -4 60 -8 63 -25 8 -44 75 -184 85 -178
5 3 7 1 4 -4 -8 -13 59 -103 78 -103 7 0 20 -3 29 -6 11 -4 16 -1 16 11 0 9 4
14 8 11 11 -7 80 12 87 23 3 5 -4 7 -15 4 -11 -3 -20 -1 -20 4 0 5 -6 10 -12
10 -7 1 -31 5 -53 10 l-40 10 28 13 c15 7 27 17 27 21 0 5 7 6 16 2 14 -5 15
-3 4 18 -8 13 -19 29 -27 34 -7 6 -15 20 -17 32 -7 32 -35 83 -47 83 -6 0 -8
4 -4 10 3 5 -6 51 -21 102 -58 207 -35 350 80 501 38 50 46 68 21 47 -9 -8
-15 -8 -15 -2 0 6 6 13 13 15 9 4 8 8 -3 16 -9 7 -10 11 -3 11 6 0 15 -5 19
-11 5 -8 10 -7 16 4 5 9 14 14 21 12 6 -3 23 5 37 16 15 13 18 19 8 15 -9 -2
-18 -1 -20 4 -2 6 -15 11 -30 12 -33 3 -36 13 -9 28 11 5 25 16 33 22 82 77
272 149 393 147 109 -1 127 -17 20 -19 -135 -1 -83 -19 61 -20 136 -1 201 -14
241 -46 28 -23 28 -23 5 -24 -14 0 -21 -4 -16 -11 4 -8 0 -8 -15 0 -23 13
-336 9 -349 -4 -4 -4 18 -5 48 -1 31 4 49 3 42 -2 -7 -5 58 -9 150 -10 193 -2
209 -4 243 -26 45 -29 32 -46 -35 -46 -33 0 -60 -4 -60 -8 0 -17 23 -31 39
-23 9 5 37 8 63 8 59 0 111 -37 111 -80 0 -16 5 -27 13 -27 15 0 44 -38 44
-58 0 -11 -14 -13 -65 -10 -45 4 -65 2 -62 -6 2 -6 30 -11 68 -11 71 0 86 -9
95 -55 6 -25 4 -29 -10 -24 -11 4 -16 1 -16 -11 0 -9 4 -14 9 -10 15 9 41 -25
41 -54 0 -28 -1 -28 -60 -26 -37 1 -59 -2 -57 -8 1 -5 32 -10 67 -11 l65 -1 8
-54 c12 -86 20 -74 13 19 -16 203 -60 299 -217 469 -125 134 -174 170 -276
200 -82 24 -145 28 -278 20z"/>
<path d="M2470 6261 c-44 -6 -45 -7 -51 -51 -14 -93 -60 -343 -65 -351 -2 -4
-20 -90 -38 -191 -19 -101 -53 -280 -75 -398 -23 -118 -41 -216 -41 -217 0 -2
766 -3 1703 -3 l1704 0 10 22 c6 13 43 190 83 393 39 204 76 379 81 390 5 11
18 70 29 130 10 61 26 142 34 180 9 39 16 78 16 88 0 16 -86 17 -1672 15 -920
0 -1693 -4 -1718 -7z m1006 -193 c-9 -12 -16 -30 -16 -40 0 -16 13 -18 150
-18 155 0 160 -2 140 -41 -9 -16 -22 -19 -83 -20 -40 -1 -64 -3 -54 -6 17 -5
24 -23 8 -23 -4 0 -29 -27 -55 -60 l-47 -60 105 0 c58 0 107 -4 110 -8 3 -5 2
-18 -1 -30 l-5 -22 -390 0 -389 0 7 23 c3 12 8 24 10 26 2 3 54 7 115 9 l110
5 -2 64 c-2 47 1 67 12 74 9 6 -12 9 -58 9 -75 0 -82 5 -67 44 5 14 29 16 158
16 l153 0 12 40 c11 38 14 40 52 40 39 0 40 0 25 -22z m912 7 c2 -2 -8 -15
-22 -30 -15 -16 -26 -32 -26 -36 0 -5 32 -9 70 -9 76 0 79 -2 59 -59 -6 -18
-9 -34 -6 -37 6 -6 65 37 140 99 41 34 47 36 71 26 14 -7 26 -15 26 -18 -1 -6
-33 -31 -142 -109 -58 -41 -61 -42 -79 -26 -22 20 -22 20 -38 -25 -15 -47 -14
-53 8 -39 16 10 25 7 58 -17 55 -41 113 -97 113 -110 0 -7 -11 -18 -25 -25
-24 -13 -28 -11 -78 36 -48 45 -96 80 -101 72 -1 -2 -9 -25 -17 -53 l-15 -50
-60 -3 c-54 -3 -62 -6 -77 -31 -9 -16 -17 -34 -17 -40 0 -8 53 -11 169 -11 94
0 172 -3 174 -7 3 -5 1 -17 -3 -28 -6 -18 -18 -20 -156 -25 l-149 -5 54 -53
c33 -32 82 -66 122 -85 38 -18 69 -38 69 -44 0 -7 -11 -20 -25 -29 -24 -16
-28 -16 -67 2 -51 23 -134 86 -177 137 -18 20 -36 37 -40 37 -4 0 -22 -47 -40
-105 -31 -103 -32 -105 -61 -105 -17 0 -30 4 -30 10 0 5 11 44 25 87 24 75 31
113 20 113 -3 0 -32 -20 -64 -44 -68 -50 -219 -129 -274 -144 -32 -9 -38 -8
-47 8 -16 30 -12 36 33 50 64 19 176 74 248 122 l64 43 -140 5 c-77 3 -140 7
-139 10 7 52 -1 50 187 50 l175 0 11 31 c17 48 16 49 -49 49 -33 0 -60 3 -60
8 0 4 10 39 21 77 11 39 27 92 35 120 8 27 21 69 30 92 l17 43 53 0 c53 0 53
1 80 46 25 42 29 45 58 38 17 -3 32 -8 34 -9z m557 -70 c0 -6 -34 -115 -75
-243 l-75 -232 -32 0 -32 0 23 83 c85 306 111 393 120 400 15 10 71 4 71 -8z
m266 -5 c-1 -8 -37 -117 -77 -242 l-75 -228 -29 0 c-17 0 -30 4 -30 8 0 9 104
387 121 439 11 33 27 42 69 40 17 -1 24 -7 21 -17z m-1638 -348 c3 -4 -20 -91
-51 -195 l-57 -187 -32 0 c-21 0 -32 5 -31 13 2 9 -43 13 -195 15 -169 2 -198
0 -203 -13 -6 -14 -64 -22 -64 -9 0 10 99 336 110 362 10 22 10 22 264 22 140
0 257 -3 259 -8z"/>
<path d="M3252 5920 c5 -17 8 -50 6 -75 l-3 -45 100 0 c92 1 101 2 116 23 9
12 33 46 53 75 l38 52 -161 0 -160 0 11 -30z"/>
<path d="M4202 5933 c-5 -10 -12 -30 -15 -44 -6 -24 -4 -27 31 -33 63 -10 149
-7 160 7 6 6 13 29 17 50 l7 37 -96 0 c-81 0 -97 -3 -104 -17z"/>
<path d="M4151 5769 c-20 -59 -20 -59 87 -59 l99 0 11 39 c7 21 12 41 12 45 0
3 -45 6 -99 6 l-99 0 -11 -31z"/>
<path d="M3091 5569 c-21 -61 -28 -59 184 -59 217 0 196 -6 219 68 l7 22 -199
0 -200 0 -11 -31z"/>
<path d="M3079 5453 c-21 -3 -29 -13 -38 -45 -7 -22 -9 -43 -6 -46 4 -4 93 -7
198 -7 l192 0 13 39 c21 66 22 66 -165 65 -92 -1 -180 -4 -194 -6z"/>
<path d="M3463 4333 c-31 -6 -29 -16 13 -63 41 -45 41 -71 -1 -116 -31 -34
-34 -60 -5 -44 16 8 22 8 26 -3 3 -9 13 -13 25 -10 10 3 19 0 19 -6 0 -6 11
-11 24 -11 29 0 82 -18 119 -41 28 -16 27 -17 -55 -12 -61 3 -87 1 -98 -9 -8
-7 -13 -12 -11 -11 2 2 10 -2 18 -9 16 -13 166 -12 192 2 10 5 22 6 27 2 5 -4
2 1 -5 11 -12 15 -11 17 12 17 14 0 28 4 32 9 3 5 29 17 58 26 28 9 88 34 132
55 59 29 99 41 150 45 65 7 167 44 181 66 7 12 1 11 -67 -6 -53 -14 -65 -14
-131 1 -40 9 -87 25 -104 35 -66 40 -220 63 -265 39 -15 -8 -23 -7 -35 5 -12
12 -34 16 -88 14 -39 0 -84 4 -99 10 -16 6 -31 10 -35 10 -4 -1 -17 -4 -29 -6z
m516 -110 c19 -5 36 -13 38 -18 1 -6 -23 -21 -55 -34 -31 -13 -75 -32 -98 -42
-52 -24 -116 -24 -196 1 -34 11 -71 20 -80 20 -9 0 -28 4 -42 10 -23 8 -24 12
-15 39 9 24 14 29 27 22 10 -5 49 -11 88 -15 58 -6 83 -3 130 13 94 31 92 31
203 4z"/>
</g>
</svg>
